<svg width="200" height="208" viewBox="0 0 200 208" xmlns="http://www.w3.org/2000/svg" xmlns:xlink="http://www.w3.org/1999/xlink">
    <defs>
        <path id="vqvl2qnjwb" d="M0 0h85.168v72.043H0z"/>
        <path id="aq5mkyqhpd" d="M0 0h73.443v52.363H0z"/>
        <path id="h1710221vf" d="M0 0h17.082v18.6H0z"/>
        <linearGradient x1="0%" y1=".236%" x2="100%" y2="99.764%" id="s2q84lqjsa">
            <stop stop-color="#FD5F73" offset="0%"/>
            <stop stop-color="#D6001C" offset="100%"/>
        </linearGradient>
    </defs>
    <g fill="none" fill-rule="evenodd">
        <path d="M47.565 0h44.413c26.27 0 47.566 21.296 47.566 47.565V91.65c0 26.27-21.296 47.565-47.566 47.565H47.565C21.295 139.214 0 117.92 0 91.65V47.565C0 21.295 21.296 0 47.565 0z" fill="url(#s2q84lqjsa)" transform="translate(31.452)"/>
        <g transform="translate(55.933 42.747)">
            <mask id="27khxw7k8c" fill="#fff">
                <use xlink:href="#vqvl2qnjwb"/>
            </mask>
            <path d="M34.113 13.06c-.002.002-.004.003-.005.006a12.85 12.85 0 0 1-9.133 3.773 12.862 12.862 0 0 1-9.141-3.777 12.811 12.811 0 0 1-2.968-4.64l-8.91 8.888C.19 21.067-.881 26.483.716 31.198l1.37-1.365.001-.002a8.705 8.705 0 0 1 6.193-2.558c2.34 0 4.54.91 6.196 2.56a8.703 8.703 0 0 1 2.537 6.726 8.747 8.747 0 0 1 6.741 2.53 8.664 8.664 0 0 1 2.568 6.18c0 .184-.014.366-.026.547 2.421-.148 4.893.69 6.739 2.53a8.704 8.704 0 0 1 2.536 6.726c2.423-.149 4.895.688 6.742 2.532 3.418 3.408 3.418 8.953 0 12.36l-1.368 1.365c4.728 1.593 10.157.526 13.922-3.232l4.147-4.136-16.597-16.557a2.528 2.528 0 0 1 0-3.583c.992-.99 2.6-.99 3.592 0l16.597 16.556 5.126-5.113-16.597-16.556a2.528 2.528 0 0 1 0-3.583c.992-.99 2.6-.99 3.592 0L71.324 51.68l5.126-5.114L59.853 30.01a2.53 2.53 0 0 1 0-3.583c.992-.99 2.6-.99 3.591 0l16.598 16.556 5.126-5.112L47.204 0 34.113 13.06z" fill="#FFF" mask="url(#27khxw7k8c)"/>
        </g>
        <g transform="translate(73.072 24.424)">
            <mask id="callkrvpae" fill="#fff">
                <use xlink:href="#aq5mkyqhpd"/>
            </mask>
            <path d="M69.483 35.635 37.73 3.958c-5.29-5.277-13.867-5.278-19.157 0L0 22.483a7.793 7.793 0 0 0 2.287 5.318 7.807 7.807 0 0 0 5.548 2.294 7.793 7.793 0 0 0 5.543-2.29l.003-.004 14.89-14.852c.991-.99 2.599-.99 3.59 0l39.512 39.414c3.286-5.22 2.663-12.186-1.89-16.728" fill="#FFB6BF" mask="url(#callkrvpae)"/>
        </g>
        <path d="M85.856 94.198a4.376 4.376 0 0 0-6.166 0l-2.367 2.36 6.167 6.152 2.366-2.36a4.347 4.347 0 0 0 0-6.152M88.968 103.455l-2.366 2.36 5.042 5.029c.38.38.783.726 1.197 1.052l2.293-2.288a4.348 4.348 0 0 0 0-6.153 4.373 4.373 0 0 0-6.166 0M76.576 84.942a4.373 4.373 0 0 0-6.166-.001l-2.367 2.36 6.167 6.152 2.367-2.36v-.002a4.31 4.31 0 0 0 1.277-3.073 4.317 4.317 0 0 0-1.278-3.076M67.297 75.686a4.343 4.343 0 0 0-3.084-1.275 4.334 4.334 0 0 0-3.08 1.273l-2.295 2.29c.325.412.67.814 1.051 1.194l5.042 5.029 2.366-2.361a4.348 4.348 0 0 0 0-6.15" fill="#FFB6BF"/>
        <path d="M6.45 176.198v-8.43h3.611c1.886 0 3.487-.334 4.805-1.003 1.317-.669 2.311-1.586 2.981-2.754.67-1.167 1.006-2.498 1.006-3.994 0-2.402-.75-4.311-2.25-5.728-1.499-1.416-3.68-2.125-6.542-2.125H.623v24.034h5.826zm2.964-13.087H6.449v-6.255h2.965c2.34 0 3.51 1.053 3.51 3.161 0 2.062-1.17 3.094-3.51 3.094zm24.81 13.087 1.499-4.385h9.03l1.499 4.385h6.201l-8.825-23.864h-6.713l-8.825 23.864h6.133zm9.03-8.804h-6.032l3.033-8.839 2.998 8.839zm25.388 8.804v-9.076h1.33l5.213 9.076h6.44l-5.725-9.45c1.84-.453 3.243-1.292 4.208-2.516.966-1.223 1.448-2.708 1.448-4.453 0-1.473-.329-2.782-.988-3.926-.658-1.145-1.647-2.045-2.964-2.703-1.318-.657-2.93-.986-4.839-.986h-9.95v24.034h5.827zm3.612-13.053h-3.612v-6.085h3.612c1.136 0 1.982.272 2.539.816.556.543.834 1.291.834 2.243 0 .997-.272 1.75-.817 2.26-.546.51-1.397.766-2.556.766zm31.114 13.053v-19.41h6.542v-4.624H91.032v4.624h6.475v19.41h5.86zm22.935 0v-14.753l9.745 14.753h5.827v-24.034h-5.827v14.89l-9.745-14.89h-5.827v24.034h5.827zm42.699 0v-4.657h-9.166v-5.337h8.144v-4.385h-8.144v-5.031h9.166v-4.624h-14.993v24.034h14.993zm17.245 0v-9.076h1.329l5.213 9.076h6.44l-5.724-9.45c1.84-.453 3.243-1.292 4.208-2.516.965-1.223 1.448-2.708 1.448-4.453 0-1.473-.33-2.782-.988-3.926-.659-1.145-1.647-2.045-2.964-2.703-1.318-.657-2.93-.986-4.84-.986h-9.949v24.034h5.827zm3.612-13.053h-3.612v-6.085h3.612c1.136 0 1.982.272 2.538.816.557.543.835 1.291.835 2.243 0 .997-.272 1.75-.818 2.26-.545.51-1.397.766-2.555.766z" fill="#303133" fill-rule="nonzero"/>
        <g>
            <path fill="#D6001C" d="M128.2 189.416V208h4.486v-13.736h-3.873l.002-.812 3.87-2.817v-1.22zM90.2 189.415V208h15.58l-.001-3.46H94.495v-4.077h8.192v-3.486l-8.19.002v-4.078h11.283v-3.486zM151.832 189.416l-5.461 8.563-5.438-8.563h-4.56V208h4.324l-.002-11.594 5.688 8.87 5.696-8.88-.01 11.604h4.324v-18.585zM121.28 189.467l-4.447 11.228-4.448-11.228h-5.011l7.33 18.533h4.284l7.303-18.533zM81.158 195.946a3.703 3.703 0 0 1-1.007 1.5c-.412.353-.832.47-1.761.54-.93.07-2.372.092-3.093.104-.675.01-.717.012-.72.012v-5.508c1.084-.004 2.174-.017 3.256.026.868.033 1.41.107 1.933.402a3.438 3.438 0 0 1 1.29 1.332c.264.518.291 1.037.102 1.592m4.821-1.5c-.262-2.465-3.347-4.875-5.623-5.031H70.16V208h4.417v-6.132c1.147-.01 2.577-.003 4.622-.004l3.652 6.136h4.888c-.024-.026-4.156-7.035-4.64-7.751 1.37-.723 3.39-2.495 2.88-5.802M61.986 208h4.487v-13.736l-3.873.001.001-.812 3.872-2.819v-1.218h-4.487z"/>
            <g transform="translate(42.81 189.396)">
                <mask id="2dx3n16clg" fill="#fff">
                    <use xlink:href="#h1710221vf"/>
                </mask>
                <path d="M11.17 14.88h-.349v-.029H3.918v-3.69h7.252c1.077 0 1.97.843 1.97 1.86 0 1.016-.893 1.86-1.97 1.86zM3.944 3.723h5.912c1.078 0 1.97.843 1.97 1.86 0 1.015-.892 1.858-1.97 1.858H3.944V3.723zm10.879 4.909a5.407 5.407 0 0 0 .945-3.05c0-3.074-2.653-5.578-5.912-5.578L0 0v3.72h.003V18.6H11.17c3.258 0 5.912-2.504 5.912-5.58 0-1.784-.893-3.371-2.26-4.388z" fill="#D6001C" mask="url(#2dx3n16clg)"/>
            </g>
        </g>
        <path fill="#D6001C" d="M.623 197.49h32.452v3.238H.623zM166.129 197.49h32.452v3.238h-32.452z"/>
    </g>
</svg>
