<svg width="191" height="57" viewBox="0 0 191 57" xmlns="http://www.w3.org/2000/svg" xmlns:xlink="http://www.w3.org/1999/xlink">
    <defs>
        <path id="8tbyx7kz3b" d="M0 0h34.789v29.498H0z"/>
        <path id="214dt54k5d" d="M0 0h30v21.44H0z"/>
        <path id="6b78arnzxf" d="M0 0h10.527v11.49H0z"/>
        <linearGradient x1="0%" y1="0%" x2="100%" y2="100%" id="120sapi59a">
            <stop stop-color="#FD5F73" offset="0%"/>
            <stop stop-color="#D6001C" offset="100%"/>
        </linearGradient>
    </defs>
    <g fill="none" fill-rule="evenodd">
        <path d="M19.543 0h17.914C48.25 0 57 8.75 57 19.543v17.914C57 48.25 48.25 57 37.457 57H19.543C8.75 57 0 48.25 0 37.457V19.543C0 8.75 8.75 0 19.543 0z" fill="url(#120sapi59a)"/>
        <g transform="translate(10 17.502)">
            <mask id="kcfeccblgc" fill="#fff">
                <use xlink:href="#8tbyx7kz3b"/>
            </mask>
            <path d="m13.934 5.347-.002.003a5.242 5.242 0 0 1-3.73 1.545c-1.41 0-2.737-.55-3.734-1.547a5.247 5.247 0 0 1-1.213-1.9l-3.64 3.64a5.528 5.528 0 0 0-1.322 5.686l.559-.56a3.551 3.551 0 0 1 2.53-1.047 3.568 3.568 0 0 1 3.567 3.802c.99-.062 2 .281 2.754 1.036a3.552 3.552 0 0 1 1.049 2.53c0 .075-.006.15-.01.224a3.57 3.57 0 0 1 2.752 1.036 3.569 3.569 0 0 1 1.036 2.754c.99-.061 2 .282 2.754 1.036a3.581 3.581 0 0 1 0 5.061l-.559.559a5.528 5.528 0 0 0 5.687-1.323l1.694-1.694-6.78-6.779a1.037 1.037 0 1 1 1.467-1.467l6.78 6.779 2.094-2.094-6.78-6.779a1.037 1.037 0 1 1 1.467-1.466l6.78 6.778 2.094-2.094-6.78-6.779a1.037 1.037 0 1 1 1.467-1.467l6.78 6.78 2.094-2.094L19.282 0l-5.348 5.347z" fill="#FFF" mask="url(#kcfeccblgc)"/>
        </g>
        <g transform="translate(17 10)">
            <mask id="u2lsc01ice" fill="#fff">
                <use xlink:href="#214dt54k5d"/>
            </mask>
            <path d="M28.382 14.59 15.412 1.62a5.533 5.533 0 0 0-7.826 0L0 9.207c.022.79.332 1.575.934 2.177.606.606 1.41.94 2.266.94a3.18 3.18 0 0 0 2.264-.939h.002l6.082-6.082a1.037 1.037 0 0 1 1.467 0l16.14 16.138a5.531 5.531 0 0 0-.773-6.85" fill="#FFB6BF" mask="url(#u2lsc01ice)"/>
        </g>
        <path d="M22.222 38.568a1.784 1.784 0 0 0-2.518 0l-.967.967 2.519 2.519.966-.967a1.783 1.783 0 0 0 0-2.519M23.494 42.359l-.967.966 2.06 2.059c.155.156.32.297.489.43l.936-.936a1.783 1.783 0 0 0 0-2.52 1.783 1.783 0 0 0-2.518 0M18.432 34.779a1.783 1.783 0 0 0-2.519 0l-.967.966 2.52 2.518.967-.966c.336-.337.521-.783.521-1.259a1.77 1.77 0 0 0-.522-1.26M14.642 30.989a1.772 1.772 0 0 0-1.26-.522c-.475 0-.922.185-1.258.521l-.938.938c.133.168.274.333.43.489l2.06 2.059.966-.967a1.783 1.783 0 0 0 0-2.518" fill="#FFB6BF"/>
        <path d="M71.591 25.847v-5.208h2.226c1.162 0 2.149-.206 2.961-.62.812-.412 1.424-.98 1.837-1.7.413-.721.62-1.544.62-2.468 0-1.484-.462-2.664-1.386-3.539-.924-.874-2.268-1.312-4.032-1.312H68v14.847h3.591zm1.827-8.085h-1.827v-3.864h1.827c1.442 0 2.163.651 2.163 1.953 0 1.274-.721 1.911-2.163 1.911zm15.29 8.085.924-2.709h5.565l.924 2.709h3.822l-5.439-14.742h-4.137l-5.439 14.742h3.78zm5.565-5.439h-3.717l1.869-5.46 1.848 5.46zm15.647 5.439V20.24h.819l3.213 5.607h3.969l-3.528-5.838c1.134-.28 1.998-.798 2.594-1.554.595-.756.892-1.673.892-2.751 0-.91-.203-1.719-.609-2.426-.406-.707-1.015-1.263-1.827-1.669-.812-.406-1.806-.609-2.982-.609h-6.132v14.847h3.591zm2.226-8.064h-2.226v-3.759h2.226c.7 0 1.222.168 1.564.504.344.336.515.798.515 1.386 0 .616-.168 1.082-.504 1.397-.336.314-.861.472-1.575.472zm19.175 8.064V13.856h4.032V11h-11.634v2.856h3.99v11.991h3.612zm14.135 0v-9.114l6.006 9.114h3.591V11h-3.591v9.198L145.456 11h-3.591v14.847h3.591zm26.315 0V22.97h-5.649v-3.297h5.019v-2.709h-5.019v-3.108h5.649V11h-9.24v14.847h9.24zm10.628 0V20.24h.819l3.213 5.607h3.969l-3.528-5.838c1.134-.28 1.998-.798 2.593-1.554s.893-1.673.893-2.751c0-.91-.203-1.719-.609-2.426-.406-.707-1.015-1.263-1.827-1.669-.812-.406-1.806-.609-2.982-.609h-6.132v14.847h3.591zm2.226-8.064h-2.226v-3.759h2.226c.7 0 1.221.168 1.565.504.343.336.514.798.514 1.386 0 .616-.168 1.082-.504 1.397-.336.314-.861.472-1.575.472z" fill="#303133" fill-rule="nonzero"/>
        <g>
            <path fill="#D6001C" d="M146.625 34.012v11.48h2.765v-8.485h-2.387v-.501l2.387-1.741v-.753zM123.206 34.012v11.48h9.602l-.001-2.137h-6.954v-2.519h5.049v-2.153l-5.048.001v-2.52h6.954v-2.152zM161.19 34.012l-3.366 5.29-3.352-5.29h-2.81v11.48h2.665l-.001-7.161 3.505 5.48 3.51-5.487-.006 7.169H164V34.012zM142.36 34.044l-2.74 6.936-2.742-6.936h-3.088l4.518 11.448h2.64l4.5-11.448zM117.633 38.046a2.288 2.288 0 0 1-.62.926c-.254.219-.513.291-1.086.334-.573.043-1.461.057-1.905.065a77.81 77.81 0 0 0-.444.007v-3.403c.667-.002 1.34-.01 2.006.016.535.021.87.067 1.192.249.322.183.63.503.794.823.163.32.18.64.063.983m2.972-.927c-.162-1.522-2.063-3.01-3.466-3.108l-6.283.001v11.48h2.722v-3.788c.707-.006 1.588-.002 2.848-.003l2.252 3.79 3.012.001c-.015-.016-2.561-4.346-2.86-4.788.844-.447 2.09-1.542 1.775-3.585M105.818 45.492h2.765v-8.485h-2.387v-.501l2.387-1.741v-.753h-2.765z"/>
            <g transform="translate(94 34)">
                <mask id="zcdm9ub1cg" fill="#fff">
                    <use xlink:href="#6b78arnzxf"/>
                </mask>
                <path d="M6.884 9.192h-.215v-.018H2.415v-2.28h4.469c.664 0 1.214.521 1.214 1.15 0 .627-.55 1.148-1.214 1.148zM2.43 2.3h3.643c.664 0 1.215.52 1.215 1.148 0 .628-.55 1.149-1.215 1.149H2.431V2.3zm6.704 3.032a3.345 3.345 0 0 0 .583-1.884C9.718 1.55 8.082.002 6.074.002L0 0v2.298h.002v9.192h6.882c2.008 0 3.643-1.547 3.643-3.446 0-1.103-.55-2.083-1.392-2.712z" fill="#D6001C" mask="url(#zcdm9ub1cg)"/>
            </g>
        </g>
        <path fill="#D6001C" d="M68 39h20v2H68zM170 39h20v2h-20z"/>
    </g>
</svg>
