<svg width="57" height="57" viewBox="0 0 57 57" xmlns="http://www.w3.org/2000/svg" xmlns:xlink="http://www.w3.org/1999/xlink">
    <defs>
        <path id="hnyv884d2b" d="M0 0h34.789v29.498H0z"/>
        <path id="pcfqoj9hrd" d="M0 0h30v21.44H0z"/>
        <linearGradient x1="0%" y1="0%" x2="100%" y2="100%" id="sdh5nogxsa">
            <stop stop-color="#FD5F73" offset="0%"/>
            <stop stop-color="#D6001C" offset="100%"/>
        </linearGradient>
    </defs>
    <g fill="none" fill-rule="evenodd">
        <path d="M19.543 0h17.914C48.25 0 57 8.75 57 19.543v17.914C57 48.25 48.25 57 37.457 57H19.543C8.75 57 0 48.25 0 37.457V19.543C0 8.75 8.75 0 19.543 0z" fill="url(#sdh5nogxsa)"/>
        <g transform="translate(10 17.502)">
            <mask id="g81zhh73ic" fill="#fff">
                <use xlink:href="#hnyv884d2b"/>
            </mask>
            <path d="m13.934 5.347-.002.003a5.242 5.242 0 0 1-3.73 1.545c-1.41 0-2.737-.55-3.734-1.547a5.247 5.247 0 0 1-1.213-1.9l-3.64 3.64a5.528 5.528 0 0 0-1.322 5.686l.559-.56a3.551 3.551 0 0 1 2.53-1.047 3.568 3.568 0 0 1 3.567 3.802c.99-.062 2 .281 2.754 1.036a3.552 3.552 0 0 1 1.049 2.53c0 .075-.006.15-.01.224a3.57 3.57 0 0 1 2.752 1.036 3.569 3.569 0 0 1 1.036 2.754c.99-.061 2 .282 2.754 1.036a3.581 3.581 0 0 1 0 5.061l-.559.559a5.528 5.528 0 0 0 5.687-1.323l1.694-1.694-6.78-6.779a1.037 1.037 0 1 1 1.467-1.467l6.78 6.779 2.094-2.094-6.78-6.779a1.037 1.037 0 1 1 1.467-1.466l6.78 6.778 2.094-2.094-6.78-6.779a1.037 1.037 0 1 1 1.467-1.467l6.78 6.78 2.094-2.094L19.282 0l-5.348 5.347z" fill="#FFF" mask="url(#g81zhh73ic)"/>
        </g>
        <g transform="translate(17 10)">
            <mask id="ojmmb2bwme" fill="#fff">
                <use xlink:href="#pcfqoj9hrd"/>
            </mask>
            <path d="M28.382 14.59 15.412 1.62a5.533 5.533 0 0 0-7.826 0L0 9.207c.022.79.332 1.575.934 2.177.606.606 1.41.94 2.266.94a3.18 3.18 0 0 0 2.264-.939h.002l6.082-6.082a1.037 1.037 0 0 1 1.467 0l16.14 16.138a5.531 5.531 0 0 0-.773-6.85" fill="#FFB6BF" mask="url(#ojmmb2bwme)"/>
        </g>
        <path d="M22.222 38.568a1.784 1.784 0 0 0-2.518 0l-.967.967 2.519 2.519.966-.967a1.783 1.783 0 0 0 0-2.519M23.494 42.359l-.967.966 2.06 2.059c.155.156.32.297.489.43l.936-.936a1.783 1.783 0 0 0 0-2.52 1.783 1.783 0 0 0-2.518 0M18.432 34.779a1.783 1.783 0 0 0-2.519 0l-.967.966 2.52 2.518.967-.966c.336-.337.521-.783.521-1.259a1.77 1.77 0 0 0-.522-1.26M14.642 30.989a1.772 1.772 0 0 0-1.26-.522c-.475 0-.922.185-1.258.521l-.938.938c.133.168.274.333.43.489l2.06 2.059.966-.967a1.783 1.783 0 0 0 0-2.518" fill="#FFB6BF"/>
    </g>
</svg>
