<?xml version="1.0" encoding="UTF-8"?>
<svg width="30px" height="30px" viewBox="0 0 30 30" version="1.1" xmlns="http://www.w3.org/2000/svg" xmlns:xlink="http://www.w3.org/1999/xlink">
    <!-- Generator: Sketch 54 (76480) - https://sketchapp.com -->
    <defs>
        <linearGradient x1="0.0723850792%" y1="0%" x2="99.9276149%" y2="100%" id="linearGradient-1">
            <stop stop-color="#494949" offset="0%"></stop>
            <stop stop-color="#717171" offset="100%"></stop>
        </linearGradient>
        <polygon id="path-2" points="0.62912 0.182464 15.73184 0.182464 15.73184 10.88 0.62912 10.88"></polygon>
        <polygon id="path-4" points="0 0.25792 16.36096 0.25792 16.36096 4.032832 0 4.032832"></polygon>
        <polygon id="path-6" points="0.428928 0.33184 6.62592 0.33184 6.62592 6.31408 0.428928 6.31408"></polygon>
    </defs>
    <g id="dashboard" stroke="none" stroke-width="1" fill="none" fill-rule="evenodd">
        <g id="musteri_muhataplisteleme_01" transform="translate(-1617.000000, -201.000000)">
            <g id="liste" transform="translate(298.000000, 151.000000)">
                <g id="01" transform="translate(0.000000, 40.000000)">
                    <g id="archive_back" transform="translate(1319.044171, 10.000000)">
                        <ellipse id="bg" fill="url(#linearGradient-1)" cx="15.3437659" cy="14.9553761" rx="14.6235496" ry="14.6341463"></ellipse>
                        <g id="icon" transform="translate(7.000000, 7.000000)">
                            <g id="Group-3" transform="translate(0.000000, 4.862336)">
                                <mask id="mask-3" fill="white">
                                    <use xlink:href="#path-2"></use>
                                </mask>
                                <g id="Clip-2"></g>
                                <path d="M9.8816,3.141824 C9.7568,3.266624 9.60896,3.328704 9.43936,3.328704 L6.9216,3.328704 C6.75136,3.328704 6.60416,3.266624 6.47936,3.141824 C6.35456,3.017664 6.29312,2.869824 6.29312,2.699584 C6.29312,2.528704 6.35456,2.381504 6.47936,2.257344 C6.60416,2.132544 6.75136,2.070464 6.9216,2.070464 L9.43936,2.070464 C9.60896,2.070464 9.7568,2.132544 9.8816,2.257344 C10.00576,2.381504 10.06784,2.528704 10.06784,2.699584 C10.06784,2.869824 10.00576,3.017664 9.8816,3.141824 M12.464,5.530944 C12.464,3.802304 13.59168,2.339904 15.15072,1.831104 C15.49568,1.718464 15.73184,1.401664 15.73184,1.038784 L15.73184,0.811584 C15.73184,0.641344 15.66976,0.493504 15.54496,0.369344 C15.42016,0.244544 15.27296,0.182464 15.10208,0.182464 L1.25824,0.182464 C1.088,0.182464 0.94016,0.244544 0.816,0.369344 C0.69184,0.493504 0.62912,0.641344 0.62912,0.811584 L0.62912,10.250304 C0.62912,10.421184 0.69184,10.568384 0.816,10.693184 C0.94016,10.817344 1.088,10.880064 1.25824,10.880064 L15.10208,10.880064 C15.27296,10.880064 15.42016,10.817344 15.54496,10.693184 C15.66912,10.568384 15.73184,10.421184 15.73184,10.250304 L15.73184,10.023744 C15.73184,9.660864 15.49568,9.344064 15.15072,9.231424 C13.59168,8.722624 12.464,7.260224 12.464,5.530944" id="Fill-1" fill="#FFFFFF" mask="url(#mask-3)"></path>
                            </g>
                            <g id="Group-6" transform="translate(0.000000, 0.382336)">
                                <mask id="mask-5" fill="white">
                                    <use xlink:href="#path-4"></use>
                                </mask>
                                <g id="Clip-5"></g>
                                <path d="M16.17408,0.444352 C16.04992,0.320192 15.90208,0.257472 15.73184,0.257472 L0.62912,0.257472 C0.45888,0.257472 0.31168,0.320192 0.18688,0.444352 C0.06208,0.569152 0,0.716352 0,0.886592 L0,3.404352 C0,3.574592 0.06208,3.721792 0.18688,3.845952 C0.31168,3.970752 0.45888,4.032832 0.62912,4.032832 L15.73184,4.032832 C15.90144,4.032832 16.04992,3.970752 16.17408,3.845952 C16.29824,3.721792 16.36096,3.574592 16.36096,3.404352 L16.36096,0.886592 C16.36096,0.716352 16.29824,0.569152 16.17408,0.444352" id="Fill-4" fill="#FFFFFF" mask="url(#mask-5)"></path>
                            </g>
                            <g id="Group-9" transform="translate(13.440000, 6.782336)">
                                <mask id="mask-7" fill="white">
                                    <use xlink:href="#path-6"></use>
                                </mask>
                                <g id="Clip-8"></g>
                                <path d="M0.675968,3.91968 L2.823168,6.06688 C3.153408,6.39648 3.687168,6.39648 4.016768,6.06688 C4.345728,5.73792 4.345728,5.20352 4.016768,4.87392 L3.309568,4.16672 L5.782528,4.16672 C6.248448,4.16672 6.626048,3.78912 6.626048,3.3232 C6.626048,2.85728 6.248448,2.47968 5.782528,2.47968 L3.309568,2.47968 L4.016768,1.77248 C4.345728,1.44288 4.345728,0.90848 4.016768,0.57888 C3.851648,0.4144 3.635968,0.33184 3.420288,0.33184 C3.203968,0.33184 2.988288,0.4144 2.823168,0.57888 L0.675968,2.72672 C0.517888,2.8848 0.428928,3.0992 0.428928,3.3232 C0.428928,3.54656 0.517888,3.76096 0.675968,3.91968" id="Fill-7" fill="#FFFFFF" mask="url(#mask-7)"></path>
                            </g>
                        </g>
                    </g>
                </g>
            </g>
        </g>
    </g>
</svg>