<?xml version="1.0" encoding="UTF-8"?>
<svg width="31px" height="30px" viewBox="0 0 31 30" version="1.1" xmlns="http://www.w3.org/2000/svg" xmlns:xlink="http://www.w3.org/1999/xlink">
    <!-- Generator: Sketch 54 (76480) - https://sketchapp.com -->
    <defs>
        <linearGradient x1="0.0723850792%" y1="0%" x2="99.9276149%" y2="100%" id="linearGradient-1">
            <stop stop-color="#FF7C52" offset="0%"></stop>
            <stop stop-color="#FF9573" offset="100%"></stop>
        </linearGradient>
        <polygon id="path-2" points="0.62944 0.182464 15.73152 0.182464 15.73152 10.88 0.62944 10.88"></polygon>
        <polygon id="path-4" points="0.00032 0.25792 16.36064 0.25792 16.36064 4.032832 0.00032 4.032832"></polygon>
        <polygon id="path-6" points="0.428672 0.332128 6.62592 0.332128 6.62592 6.313728 0.428672 6.313728"></polygon>
    </defs>
    <g id="dashboard" stroke="none" stroke-width="1" fill="none" fill-rule="evenodd">
        <g id="musteri_muhataplisteleme_01" transform="translate(-1567.000000, -201.000000)">
            <g id="liste" transform="translate(298.000000, 151.000000)">
                <g id="01" transform="translate(0.000000, 40.000000)">
                    <g id="archive_sen" transform="translate(1269.080377, 10.000000)">
                        <ellipse id="Oval" fill="url(#linearGradient-1)" cx="14.9891383" cy="15" rx="14.9891383" ry="15"></ellipse>
                        <g id="icon" transform="translate(6.000000, 7.000000)">
                            <g id="Group-3" transform="translate(0.000000, 4.862336)">
                                <mask id="mask-3" fill="white">
                                    <use xlink:href="#path-2"></use>
                                </mask>
                                <g id="Clip-2"></g>
                                <path d="M9.88128,3.141824 C9.75712,3.266624 9.60928,3.328704 9.43904,3.328704 L6.92192,3.328704 C6.75104,3.328704 6.60384,3.266624 6.47968,3.141824 C6.35488,3.017664 6.2928,2.869824 6.2928,2.699584 C6.2928,2.528704 6.35488,2.381504 6.47968,2.257344 C6.60384,2.132544 6.75104,2.070464 6.92192,2.070464 L9.43968,2.070464 C9.60928,2.070464 9.75712,2.132544 9.88128,2.257344 C10.00608,2.381504 10.06816,2.528704 10.06816,2.699584 C10.06816,2.869824 10.00544,3.017664 9.88128,3.141824 M12.46432,5.530944 C12.46432,3.802304 13.592,2.339904 15.1504,1.831104 C15.49536,1.718464 15.73152,1.401664 15.73152,1.038784 L15.73152,0.811584 C15.73152,0.641344 15.66944,0.493504 15.54528,0.369344 C15.42048,0.244544 15.27328,0.182464 15.1024,0.182464 L1.25856,0.182464 C1.08832,0.182464 0.94048,0.244544 0.81632,0.369344 C0.69216,0.493504 0.62944,0.641344 0.62944,0.811584 L0.62944,10.250304 C0.62944,10.421184 0.69216,10.568384 0.81632,10.693184 C0.94048,10.817344 1.08832,10.880064 1.25856,10.880064 L15.1024,10.880064 C15.27328,10.880064 15.41984,10.817344 15.54528,10.693184 C15.66944,10.568384 15.73152,10.421184 15.73152,10.250304 L15.73152,10.023744 C15.73152,9.660864 15.49536,9.344064 15.1504,9.231424 C13.592,8.722624 12.46432,7.260224 12.46432,5.530944" id="Fill-1" fill="#FFFFFF" mask="url(#mask-3)"></path>
                            </g>
                            <g id="Group-6" transform="translate(0.000000, 0.382336)">
                                <mask id="mask-5" fill="white">
                                    <use xlink:href="#path-4"></use>
                                </mask>
                                <g id="Clip-5"></g>
                                <path d="M16.1744,0.444352 C16.0496,0.320192 15.90176,0.257472 15.73216,0.257472 L0.62944,0.257472 C0.45856,0.257472 0.31136,0.320192 0.1872,0.444352 C0.0624,0.569152 0.00032,0.716352 0.00032,0.886592 L0.00032,3.404352 C0.00032,3.574592 0.0624,3.721792 0.1872,3.845952 C0.31136,3.970752 0.45856,4.032832 0.62944,4.032832 L15.73152,4.032832 C15.90176,4.032832 16.0496,3.970752 16.1744,3.845952 C16.29856,3.721792 16.36064,3.574592 16.36064,3.404352 L16.36064,0.886592 C16.36064,0.716352 16.29856,0.569152 16.1744,0.444352" id="Fill-4" fill="#FFFFFF" mask="url(#mask-5)"></path>
                            </g>
                            <g id="Group-9" transform="translate(13.440000, 6.782336)">
                                <mask id="mask-7" fill="white">
                                    <use xlink:href="#path-6"></use>
                                </mask>
                                <g id="Clip-8"></g>
                                <path d="M6.378752,2.726528 L4.231552,0.579328 C3.901952,0.249728 3.367552,0.249728 3.037952,0.579328 C2.708992,0.908288 2.708992,1.442688 3.037952,1.772288 L3.745792,2.479488 L1.272192,2.479488 C0.806272,2.479488 0.428672,2.857088 0.428672,3.323008 C0.428672,3.788928 0.806272,4.166528 1.272192,4.166528 L3.745792,4.166528 L3.037952,4.873728 C2.708992,5.203328 2.708992,5.737728 3.037952,6.067328 C3.203072,6.231808 3.418752,6.313728 3.634432,6.313728 C3.850752,6.313728 4.066432,6.231808 4.231552,6.067328 L6.378752,3.919488 C6.536832,3.761408 6.626432,3.547008 6.626432,3.323008 C6.626432,3.099648 6.536832,2.884608 6.378752,2.726528" id="Fill-7" fill="#FFFFFF" mask="url(#mask-7)"></path>
                            </g>
                        </g>
                    </g>
                </g>
            </g>
        </g>
    </g>
</svg>