
<svg xmlns="http://www.w3.org/2000/svg" xmlns:xlink="http://www.w3.org/1999/xlink" width="30" height="30" viewBox="0 0 30 30">
  <defs>
    <linearGradient id="linear-gradient" x2="1" y2="1" gradientUnits="objectBoundingBox">
      <stop offset="0" stop-color="#d6d0d0"/>
      <stop offset="1" stop-color="#b7b7b7"/>
    </linearGradient>
    <clipPath id="clip-comment-icon">
      <rect width="30" height="30"/>
    </clipPath>
  </defs>
  <g id="comment-icon" clip-path="url(#clip-comment-icon)">
    <path id="bg" d="M14.634,0A14.634,14.634,0,1,1,0,14.634,14.634,14.634,0,0,1,14.634,0Z" transform="translate(0.721 0.321)" fill="url(#linear-gradient)"/>
    <path id="Fill_1" data-name="Fill 1" d="M14.22,2.9A6.935,6.935,0,0,0,11.447.779,9.311,9.311,0,0,0,7.62,0,9.491,9.491,0,0,0,4.66.46,8.061,8.061,0,0,0,2.228,1.7,6.08,6.08,0,0,0,.6,3.568,4.573,4.573,0,0,0,0,5.832,4.644,4.644,0,0,0,.769,8.393a6.2,6.2,0,0,0,1.56,1.64.909.909,0,0,1,.327,1.051l0,.007q-.127.328-.23.538a3.712,3.712,0,0,1-.276.465q-.175.255-.264.36L1.59,12.8q-.2.242-.263.314a.592.592,0,0,0-.068.082l-.06.078-.051.082c-.029.046-.041.075-.039.087a.244.244,0,0,1-.017.091.128.128,0,0,0,0,.109v.009a.468.468,0,0,0,.149.264A.317.317,0,0,0,1.5,14a5.973,5.973,0,0,0,.969-.2,9.083,9.083,0,0,0,3.611-1.932.956.956,0,0,1,.706-.234q.424.034.829.034a9.3,9.3,0,0,0,3.827-.78,6.931,6.931,0,0,0,2.772-2.123,4.716,4.716,0,0,0,0-5.859" transform="translate(8 8)" fill="#fff"/>
  </g>
</svg>
