<svg width="18" height="18" viewBox="0 0 18 18" xmlns="http://www.w3.org/2000/svg" xmlns:xlink="http://www.w3.org/1999/xlink">
    <defs>
        <path id="1jog1qbexa" d="M0 0h17.224v18H0z"/>
    </defs>
    <g fill="none" fill-rule="evenodd">
        <mask id="n61ueq4hib" fill="#fff">
            <use xlink:href="#1jog1qbexa"/>
        </mask>
        <path d="M17.224 8.85v2.489c0 1.33-.763 2.42-1.696 2.42h-.509v.852a2.645 2.645 0 0 1-2.645 2.646h-.771a.981.981 0 0 1-.95.743H8.849a.98.98 0 0 1-.978-.978v-.41a.98.98 0 0 1 .978-.977h1.806c.454 0 .839.314.947.736h.773a1.76 1.76 0 0 0 1.76-1.76v-.852h-.818c-.277 0-.501-.32-.501-.714V7.144c0-.394.224-.714.5-.714h.122V4.84a2.869 2.869 0 0 0-2.868-2.87H6.735a2.868 2.868 0 0 0-2.867 2.87v1.59h.04c.276 0 .5.32.5.714v5.901c0 .394-.224.714-.5.714H1.696c-.932 0-1.695-1.09-1.695-2.42V8.85c0-1.33.763-2.42 1.695-2.42h.202V4.84A4.84 4.84 0 0 1 6.735 0h3.834a4.838 4.838 0 0 1 4.838 4.839v1.59h.121c.933 0 1.696 1.09 1.696 2.421" fill="#909399" mask="url(#n61ueq4hib)"/>
    </g>
</svg>
