<svg width="20" height="18" viewBox="0 0 20 18" xmlns="http://www.w3.org/2000/svg" xmlns:xlink="http://www.w3.org/1999/xlink">
    <defs>
        <path id="e8r15q9ona" d="M0 0h19.761v18H0z"/>
    </defs>
    <g fill="none" fill-rule="evenodd">
        <mask id="h6gll79yhb" fill="#fff">
            <use xlink:href="#e8r15q9ona"/>
        </mask>
        <path d="M19.259 8.721 10.998.46h-.001a1.548 1.548 0 0 0-.605-.37 1.582 1.582 0 0 0-.476-.088L9.887 0c-.254 0-.504.068-.734.19a1.575 1.575 0 0 0-.376.27L.494 8.742c-.537.537-.666 1.391-.24 2.02a1.571 1.571 0 0 0 2.419.24l.625-.625v6.44c0 .653.529 1.182 1.18 1.182h2.86c.517 0 .936-.419.936-.936v-4.926c0-.356.288-.645.644-.645h1.802c.356 0 .644.289.644.645v4.97c-.007.493.345.892.837.892h3.095a1.18 1.18 0 0 0 1.18-1.181v-6.44l.626.625a1.57 1.57 0 0 0 2.278-.061c.568-.632.48-1.621-.121-2.222" fill="#909399" mask="url(#h6gll79yhb)"/>
    </g>
</svg>
