<svg width="20" height="20" viewBox="0 0 20 20" xmlns="http://www.w3.org/2000/svg">
    <path d="M16.25 8.75a1.249 1.249 0 1 0 0 2.5 1.249 1.249 0 1 0 0-2.5M10 2.5A1.25 1.25 0 1 0 10 5a1.25 1.25 0 0 0 0-2.5m0 13.75a2.502 2.502 0 0 0 1.793-4.243l2.469-5.69a.9.9 0 0 0-.445-1.239.943.943 0 0 0-1.239.48l-2.504 5.692c-.023 0-.05-.035-.074-.035-1.38 0-2.5 1.156-2.5 2.535 0 1.38 1.12 2.5 2.5 2.5M5.625 4.375c-.692 0-1.25.558-1.25 1.25s.558 1.25 1.25 1.25a1.249 1.249 0 1 0 0-2.5M3.75 11.25A1.249 1.249 0 1 0 2.5 10c0 .691.56 1.25 1.25 1.25M20 10c0 5.523-4.477 10-10 10S0 15.523 0 10 4.477 0 10 0s10 4.477 10 10" fill="#909399" fill-rule="evenodd"/>
</svg>
