<svg width="18" height="18" viewBox="0 0 18 18" xmlns="http://www.w3.org/2000/svg" xmlns:xlink="http://www.w3.org/1999/xlink">
    <defs>
        <path id="ovjl1q6h0a" d="M0 0h17.45v17.45H0z"/>
    </defs>
    <g fill="none" fill-rule="evenodd">
        <mask id="v83h7ps9ib" fill="#fff">
            <use xlink:href="#ovjl1q6h0a"/>
        </mask>
        <path d="M16.107 10.738h-.671c-.37 0-.671-.3-.671-.672v-.67c0-.742-.6-1.343-1.343-1.343h-3.355a.672.672 0 0 1 0-1.342h.67c.742 0 1.343-.6 1.343-1.342V1.342C12.08.6 11.48 0 10.738 0H6.712C5.97 0 5.369.6 5.369 1.342v4.027c0 .741.6 1.342 1.343 1.342h.67a.671.671 0 0 1 0 1.342H4.027c-.742 0-1.343.601-1.343 1.342v.671c0 .372-.3.672-.67.672h-.672C.6 10.738 0 11.338 0 12.08v4.027c0 .741.6 1.342 1.342 1.342h4.027c.742 0 1.343-.601 1.343-1.342V12.08c0-.741-.601-1.342-1.343-1.342h-.671a.67.67 0 1 1 0-1.343h8.053a.671.671 0 0 1 0 1.343h-.67c-.742 0-1.343.6-1.343 1.342v4.027c0 .741.6 1.342 1.342 1.342h4.027c.741 0 1.342-.601 1.342-1.342V12.08c0-.741-.601-1.342-1.342-1.342" fill="#909399" mask="url(#v83h7ps9ib)"/>
    </g>
</svg>
