<?xml version="1.0" encoding="UTF-8"?>
<svg width="30px" height="30px" viewBox="0 0 30 30" version="1.1" xmlns="http://www.w3.org/2000/svg" xmlns:xlink="http://www.w3.org/1999/xlink">
    <!-- Generator: Sketch 54 (76480) - https://sketchapp.com -->
    <defs>
        <linearGradient x1="0.0723850792%" y1="0%" x2="99.9276149%" y2="100%" id="linearGradient-1">
            <stop stop-color="#FF7C52" offset="0%"></stop>
            <stop stop-color="#FF9573" offset="100%"></stop>
        </linearGradient>
        <polygon id="path-2" points="1.64383562e-05 1.64383562e-05 20.089726 1.64383562e-05 20.089726 11.9753425 1.64383562e-05 11.9753425"></polygon>
    </defs>
    <g id="dashboard" stroke="none" stroke-width="1" fill="none" fill-rule="evenodd">
        <g id="musteri_muhataplisteleme_01" transform="translate(-1517.000000, -201.000000)">
            <g id="liste" transform="translate(298.000000, 151.000000)">
                <g id="01" transform="translate(0.000000, 40.000000)">
                    <g id="goruntule" transform="translate(1219.000000, 10.000000)">
                        <ellipse id="Oval" fill="url(#linearGradient-1)" cx="14.9891383" cy="15" rx="14.9891383" ry="15"></ellipse>
                        <g id="icon" transform="translate(5.000000, 9.000000)">
                            <mask id="mask-3" fill="white">
                                <use xlink:href="#path-2"></use>
                            </mask>
                            <g id="Clip-2"></g>
                            <path d="M10.1928247,8.25618082 C8.82022192,8.34248219 7.68597534,7.21234521 7.7763863,5.83974247 C7.84620822,4.70549589 8.76679726,3.78905753 9.90100274,3.71508493 C11.2736466,3.62874247 12.4078521,4.75887945 12.3174411,6.13152329 C12.2434685,7.26987945 11.3229616,8.18631781 10.1928247,8.25618082 M10.3202219,10.2040849 C7.77227671,10.3644 5.66812603,8.2643589 5.8284411,5.71234521 C5.95994795,3.60819452 7.6654274,1.90271507 9.76953699,1.77124932 C12.3174411,1.61097534 14.4215507,3.71093425 14.2613178,6.26303014 C14.1256603,8.36303014 12.4201808,10.0685096 10.3202219,10.2040849 M10.0448384,1.64383562e-05 C6.20652329,1.64383562e-05 2.72570137,2.10001644 0.157208219,5.51097534 C-0.0523808219,5.7904274 -0.0523808219,6.18083836 0.157208219,6.46029041 C2.72570137,9.87531781 6.20652329,11.9753589 10.0448384,11.9753589 C13.8832356,11.9753589 17.3640575,9.87531781 19.9325507,6.4643589 C20.1421397,6.18494795 20.1421397,5.79453699 19.9325507,5.51508493 C17.3640575,2.10001644 13.8832356,1.64383562e-05 10.0448384,1.64383562e-05" id="Fill-1" fill="#FFFFFF" mask="url(#mask-3)"></path>
                        </g>
                    </g>
                </g>
            </g>
        </g>
    </g>
</svg>